{
	"asset":{
		"generator":"Khronos glTF Blender I/O v4.2.70",
		"version":"2.0"
	},
	"scene":0,
	"scenes":[
		{
			"name":"Scene",
			"nodes":[
				0
			]
		}
	],
	"nodes":[
		{
			"mesh":0,
			"name":"Text.001"
		}
	],
	"meshes":[
		{
			"name":"Text.001",
			"primitives":[
				{
					"attributes":{
						"POSITION":0,
						"NORMAL":1,
						"TEXCOORD_0":2
					},
					"indices":3
				}
			]
		}
	],
	"accessors":[
		{
			"bufferView":0,
			"componentType":5126,
			"count":2781,
			"max":[
				5.186089038848877,
				0.10000012814998627,
				0.6922793388366699
			],
			"min":[
				0.05669282749295235,
				-3.013494875858669e-08,
				-1.235001802444458
			],
			"type":"VEC3"
		},
		{
			"bufferView":1,
			"componentType":5126,
			"count":2781,
			"type":"VEC3"
		},
		{
			"bufferView":2,
			"componentType":5126,
			"count":2781,
			"type":"VEC2"
		},
		{
			"bufferView":3,
			"componentType":5123,
			"count":4098,
			"type":"SCALAR"
		}
	],
	"bufferViews":[
		{
			"buffer":0,
			"byteLength":33372,
			"byteOffset":0,
			"target":34962
		},
		{
			"buffer":0,
			"byteLength":33372,
			"byteOffset":33372,
			"target":34962
		},
		{
			"buffer":0,
			"byteLength":22248,
			"byteOffset":66744,
			"target":34962
		},
		{
			"buffer":0,
			"byteLength":8196,
			"byteOffset":88992,
			"target":34963
		}
	],
	"buffers":[
		{
			"byteLength":97188,
			"uri":"loading.bin"
		}
	]
}
