{
	"asset":{
		"generator":"Khronos glTF Blender I/O v4.2.70",
		"version":"2.0"
	},
	"extensionsUsed":[
		"KHR_materials_unlit"
	],
	"scene":0,
	"scenes":[
		{
			"name":"Scene",
			"nodes":[
				0,
				4
			]
		}
	],
	"nodes":[
		{
			"mesh":0,
			"name":"Text.001"
		},
		{
			"mesh":1,
			"name":"Mesh_0",
			"translation":[
				-6,
				0.9999998807907104,
				0
			]
		},
		{
			"children":[
				1
			],
			"name":"Wooden.obj.cleaner.materialmerger.gles"
		},
		{
			"children":[
				2
			],
			"name":"RootNode (model correction matrix)"
		},
		{
			"children":[
				3
			],
			"name":"RootNode (gltf orientation matrix)",
			"rotation":[
				-0.70710688829422,
				0,
				0,
				0.7071066498756409
			]
		}
	],
	"materials":[
		{
			"doubleSided":true,
			"name":"Material"
		},
		{
			"doubleSided":true,
			"extensions":{
				"KHR_materials_unlit":{}
			},
			"name":"Material.001",
			"pbrMetallicRoughness":{
				"baseColorTexture":{
					"index":0
				},
				"metallicFactor":0,
				"roughnessFactor":0.9
			}
		}
	],
	"meshes":[
		{
			"name":"Text.001",
			"primitives":[
				{
					"attributes":{
						"POSITION":0,
						"NORMAL":1,
						"TEXCOORD_0":2
					},
					"indices":3,
					"material":0
				}
			]
		},
		{
			"name":"Mesh_0",
			"primitives":[
				{
					"attributes":{
						"POSITION":4,
						"NORMAL":5,
						"TEXCOORD_0":6
					},
					"indices":7,
					"material":1
				}
			]
		}
	],
	"textures":[
		{
			"sampler":0,
			"source":0
		}
	],
	"images":[
		{
			"mimeType":"image/png",
			"name":"Material.001_baseColor",
			"uri":"textures/Material_001_baseColor.png"
		},
		{
			"mimeType":"image/png",
			"name":"tuesdayloading",
			"uri":"textures/tuesdayloading.png"
		},
		{
			"mimeType":"image/png",
			"name":"tuesdayloading",
			"uri":"textures/tuesdayloading-1.png"
		}
	],
	"accessors":[
		{
			"bufferView":0,
			"componentType":5126,
			"count":2781,
			"max":[
				5.186089038848877,
				0.6922793388366699,
				3.013494875858669e-08
			],
			"min":[
				0.05669282749295235,
				-1.235001802444458,
				-0.10000012814998627
			],
			"type":"VEC3"
		},
		{
			"bufferView":1,
			"componentType":5126,
			"count":2781,
			"type":"VEC3"
		},
		{
			"bufferView":2,
			"componentType":5126,
			"count":2781,
			"type":"VEC2"
		},
		{
			"bufferView":3,
			"componentType":5123,
			"count":4098,
			"type":"SCALAR"
		},
		{
			"bufferView":4,
			"componentType":5126,
			"count":5168,
			"max":[
				6.373444080352783,
				11.9862699508667,
				7.023606777191162
			],
			"min":[
				-9.901876449584961,
				-5.432844161987305,
				-0.1110680028796196
			],
			"type":"VEC3"
		},
		{
			"bufferView":5,
			"componentType":5126,
			"count":5168,
			"type":"VEC3"
		},
		{
			"bufferView":6,
			"componentType":5126,
			"count":5168,
			"type":"VEC2"
		},
		{
			"bufferView":7,
			"componentType":5123,
			"count":13242,
			"type":"SCALAR"
		}
	],
	"bufferViews":[
		{
			"buffer":0,
			"byteLength":33372,
			"byteOffset":0,
			"target":34962
		},
		{
			"buffer":0,
			"byteLength":33372,
			"byteOffset":33372,
			"target":34962
		},
		{
			"buffer":0,
			"byteLength":22248,
			"byteOffset":66744,
			"target":34962
		},
		{
			"buffer":0,
			"byteLength":8196,
			"byteOffset":88992,
			"target":34963
		},
		{
			"buffer":0,
			"byteLength":62016,
			"byteOffset":97188,
			"target":34962
		},
		{
			"buffer":0,
			"byteLength":62016,
			"byteOffset":159204,
			"target":34962
		},
		{
			"buffer":0,
			"byteLength":41344,
			"byteOffset":221220,
			"target":34962
		},
		{
			"buffer":0,
			"byteLength":26484,
			"byteOffset":262564,
			"target":34963
		}
	],
	"samplers":[
		{
			"magFilter":9729,
			"minFilter":9987
		}
	],
	"buffers":[
		{
			"byteLength":289048,
			"uri":"tuesdayloading.bin"
		}
	]
}
